<svg width="620" height="110" viewBox="0 0 620 110" fill="none" xmlns="http://www.w3.org/2000/svg">
<path d="M19.808 35.376L15.328 39.664L0.48 25.712V21.616L15.328 7.664L19.808 11.952L7.2 23.792C7.584 23.9627 11.7867 27.824 19.808 35.376ZM407.09 29.36C407.09 31.8347 406.215 33.904 404.466 35.568C402.759 37.1893 400.604 38 398.002 38H388.146C385.543 38 383.367 37.1893 381.618 35.568C379.911 33.904 379.058 31.8347 379.058 29.36V9.52C379.058 7.04533 379.911 4.99733 381.618 3.376C383.367 1.712 385.543 0.879997 388.146 0.879997H398.13C400.732 0.879997 402.866 1.75466 404.53 3.504C406.236 5.25333 407.09 7.38667 407.09 9.904V12.144H400.562V9.328C400.562 8.688 400.327 8.13333 399.858 7.664C399.431 7.19467 398.919 6.96 398.322 6.96H387.826C387.271 6.96 386.759 7.19467 386.29 7.664C385.82 8.13333 385.586 8.688 385.586 9.328V29.616C385.586 30.256 385.82 30.8107 386.29 31.28C386.759 31.7493 387.271 31.984 387.826 31.984H398.322C398.919 31.984 399.431 31.7493 399.858 31.28C400.327 30.8107 400.562 30.256 400.562 29.616V26.736H407.09V29.36ZM444.316 29.424C444.316 31.856 443.42 33.904 441.628 35.568C439.878 37.1893 437.702 38 435.1 38H425.884C423.281 38 421.084 37.1893 419.292 35.568C417.542 33.904 416.668 31.856 416.668 29.424V20.336C416.668 17.904 417.542 15.8773 419.292 14.256C421.084 12.592 423.281 11.76 425.884 11.76H435.1C437.702 11.76 439.878 12.592 441.628 14.256C443.42 15.8773 444.316 17.904 444.316 20.336V29.424ZM437.916 30.064V19.696C437.916 19.0987 437.702 18.608 437.276 18.224C436.849 17.7973 436.316 17.584 435.676 17.584H425.308C424.71 17.584 424.177 17.7973 423.708 18.224C423.281 18.608 423.068 19.0987 423.068 19.696V30.064C423.068 30.6613 423.281 31.1733 423.708 31.6C424.177 31.984 424.71 32.176 425.308 32.176H435.676C436.316 32.176 436.849 31.984 437.276 31.6C437.702 31.1733 437.916 30.6613 437.916 30.064ZM481.069 38H463.021C460.418 38 458.242 37.1893 456.493 35.568C454.786 33.904 453.933 31.8347 453.933 29.36V19.888C453.933 17.4133 454.786 15.344 456.493 13.68C458.242 12.016 460.418 11.2053 463.021 11.248H467.949C469.314 11.248 470.573 11.6107 471.725 12.336C472.365 12.72 473.346 13.5307 474.669 14.768V0.879997H481.069V38ZM474.669 32.304V22.192L470.125 18.224C469.271 17.456 468.311 17.072 467.245 17.072H462.573C461.975 17.072 461.442 17.2853 460.973 17.712C460.546 18.096 460.333 18.5867 460.333 19.184V30.128C460.333 30.7253 460.546 31.2373 460.973 31.664C461.399 32.0907 461.933 32.304 462.573 32.304H474.669ZM518.06 28.016H497.708V30.192C497.708 30.7467 497.921 31.2373 498.348 31.664C498.774 32.0907 499.308 32.304 499.948 32.304H514.668V38H500.396C497.793 38 495.617 37.2107 493.868 35.632C492.161 34.0107 491.308 31.9627 491.308 29.488V20.272C491.308 17.7973 492.161 15.7707 493.868 14.192C495.617 12.5707 497.793 11.76 500.396 11.76H508.972C511.574 11.76 513.729 12.5707 515.436 14.192C517.185 15.7707 518.06 17.7973 518.06 20.272V28.016ZM511.66 22.448V19.76C511.66 19.1627 511.446 18.672 511.02 18.288C510.593 17.8613 510.06 17.648 509.42 17.648H499.948C499.35 17.648 498.817 17.8613 498.348 18.288C497.921 18.672 497.708 19.1627 497.708 19.76V22.448H511.66ZM349.53 93.36C349.53 95.8347 348.655 97.904 346.906 99.568C345.199 101.189 343.045 102 340.442 102H321.37V64.88H340.442C343.045 64.88 345.199 65.712 346.906 67.376C348.655 68.9973 349.53 71.0453 349.53 73.52V93.36ZM343.002 93.68V73.2C343.002 72.56 342.767 72.0053 342.298 71.536C341.871 71.0667 341.359 70.832 340.762 70.832H327.77V96.048H340.762C341.359 96.048 341.871 95.8133 342.298 95.344C342.767 94.8747 343.002 94.32 343.002 93.68ZM384.961 86.768H378.433V83.76C378.433 83.1627 378.198 82.672 377.729 82.288C377.302 81.8613 376.79 81.648 376.193 81.648H373.313C372.204 81.648 371.244 82.0107 370.433 82.736L366.145 86.64V102H359.745V75.76H366.145V79.28C367.638 77.872 368.556 77.04 368.897 76.784C369.878 76.1013 371.094 75.76 372.545 75.76H375.873C378.476 75.7173 380.63 76.5067 382.337 78.128C384.086 79.7493 384.961 81.776 384.961 84.208V86.768ZM419.685 92.016H399.333V94.192C399.333 94.7467 399.546 95.2373 399.973 95.664C400.399 96.0907 400.933 96.304 401.573 96.304H416.293V102H402.021C399.418 102 397.242 101.211 395.493 99.632C393.786 98.0107 392.933 95.9627 392.933 93.488V84.272C392.933 81.7973 393.786 79.7707 395.493 78.192C397.242 76.5707 399.418 75.76 402.021 75.76H410.597C413.199 75.76 415.354 76.5707 417.061 78.192C418.81 79.7707 419.685 81.7973 419.685 84.272V92.016ZM413.285 86.448V83.76C413.285 83.1627 413.071 82.672 412.645 82.288C412.218 81.8613 411.685 81.648 411.045 81.648H401.573C400.975 81.648 400.442 81.8613 399.973 82.288C399.546 82.672 399.333 83.1627 399.333 83.76V86.448H413.285ZM455.405 83.888V102H437.741C435.095 102 432.919 101.189 431.213 99.568C429.506 97.9467 428.653 96.0053 428.653 93.744C428.653 91.6107 429.506 89.7973 431.213 88.304C432.962 86.768 435.117 86 437.677 86L449.005 85.936V84.336C449.005 83.312 448.77 82.608 448.301 82.224C447.831 81.84 446.893 81.648 445.485 81.648H433.389V75.76H446.637C449.069 75.76 451.138 76.5707 452.845 78.192C454.551 79.7707 455.405 81.6693 455.405 83.888ZM449.005 96.304V91.568H437.485C436.845 91.568 436.269 91.7813 435.757 92.208C435.245 92.6347 434.989 93.2107 434.989 93.936C434.989 94.576 435.223 95.1307 435.693 95.6C436.162 96.0693 436.674 96.304 437.229 96.304H449.005ZM502.996 102H496.468V83.568C496.468 82.16 495.849 81.456 494.612 81.456H493.332C492.649 81.456 492.201 81.5413 491.988 81.712C491.647 82.0107 491.305 82.3093 490.964 82.608L487.892 85.232V102H481.364V83.568C481.364 82.16 480.745 81.456 479.508 81.456H478.868C478.356 81.456 477.887 81.648 477.46 82.032L472.148 86.512V102H465.62V75.76H472.148V79.536C473.727 78.0853 474.665 77.2533 474.964 77.04C476.159 76.1867 477.353 75.76 478.548 75.76H479.508C482.452 75.76 484.713 76.9547 486.292 79.344C487.999 77.7653 489.151 76.8053 489.748 76.464C490.687 76.0373 492.201 75.8027 494.292 75.76C496.895 75.7173 498.985 76.5067 500.564 78.128C502.185 79.7493 502.996 81.7973 502.996 84.272V102ZM538.909 93.872C538.909 96.0907 538.056 98.0107 536.349 99.632C534.642 101.211 532.466 102 529.821 102H514.205V96.176H530.269C531.762 96.176 532.509 95.472 532.509 94.064C532.509 92.7413 531.677 92.0587 530.013 92.016L521.757 91.76C519.069 91.7173 516.808 90.9707 514.973 89.52C513.181 88.0693 512.285 86.2347 512.285 84.016C512.285 81.7547 513.138 79.8133 514.845 78.192C516.552 76.5707 518.728 75.76 521.373 75.76H536.669V81.584H520.925C520.328 81.584 519.794 81.7973 519.325 82.224C518.898 82.6507 518.685 83.184 518.685 83.824C518.685 85.1467 520.029 85.9147 522.717 86.128C525.106 86.128 527.517 86.128 529.949 86.128C532.466 86.2133 534.578 87.0027 536.285 88.496C538.034 89.9893 538.909 91.7813 538.909 93.872ZM594.75 60.592L573.182 109.616L567.038 106.928L588.67 57.904L594.75 60.592ZM619.862 89.712L605.014 103.664L600.534 99.376L613.142 87.536C612.758 87.3653 608.555 83.504 600.534 75.952L605.014 71.664L619.862 85.616V89.712Z" fill="#09CE91"/>
<path d="M75.434 38H51.37V0.879997H75.434V6.832H57.77V16.432H71.466V22.512H57.77V32.048H75.434V38ZM112.499 38H106.099V19.632C106.099 19.0773 105.864 18.5867 105.395 18.16C104.968 17.7333 104.456 17.52 103.859 17.52H99.6345C98.6532 17.52 97.7145 17.904 96.8185 18.672L92.0825 22.576V38H85.6825V11.76H92.0825V15.536C93.8318 14.0427 94.8558 13.2107 95.1545 13.04C96.3918 12.1867 97.6505 11.76 98.9305 11.76H103.667C106.269 11.76 108.381 12.528 110.003 14.064C111.667 15.5573 112.499 17.52 112.499 19.952V38ZM142.137 7.344H135.353V0.879997H142.137V7.344ZM142.201 35.312C142.201 37.7867 141.348 39.856 139.641 41.52C137.934 43.184 135.78 44.016 133.177 44.016H128.633C126.03 44.016 123.854 43.184 122.105 41.52C120.398 39.856 119.545 37.7867 119.545 35.312V32.624H125.945V35.888C125.945 36.4427 126.158 36.9333 126.585 37.36C127.054 37.7867 127.588 38 128.185 38H133.497C134.094 38 134.606 37.7867 135.033 37.36C135.502 36.9333 135.737 36.4427 135.737 35.888V11.312H142.201V35.312ZM179.441 29.424C179.441 31.856 178.545 33.904 176.753 35.568C175.003 37.1893 172.827 38 170.225 38H161.009C158.406 38 156.209 37.1893 154.417 35.568C152.667 33.904 151.793 31.856 151.793 29.424V20.336C151.793 17.904 152.667 15.8773 154.417 14.256C156.209 12.592 158.406 11.76 161.009 11.76H170.225C172.827 11.76 175.003 12.592 176.753 14.256C178.545 15.8773 179.441 17.904 179.441 20.336V29.424ZM173.041 30.064V19.696C173.041 19.0987 172.827 18.608 172.401 18.224C171.974 17.7973 171.441 17.584 170.801 17.584H160.433C159.835 17.584 159.302 17.7973 158.833 18.224C158.406 18.608 158.193 19.0987 158.193 19.696V30.064C158.193 30.6613 158.406 31.1733 158.833 31.6C159.302 31.984 159.835 32.176 160.433 32.176H170.801C171.441 32.176 171.974 31.984 172.401 31.6C172.827 31.1733 173.041 30.6613 173.041 30.064ZM215.554 35.376C215.554 37.8507 214.679 39.8987 212.93 41.52C211.223 43.184 209.068 44.016 206.466 44.016H194.434V38H206.914C207.554 38 208.087 37.808 208.514 37.424C208.94 36.9973 209.154 36.4853 209.154 35.888V34.224H198.146C195.543 34.224 193.367 33.4133 191.618 31.792C189.911 30.1707 189.058 28.1227 189.058 25.648V11.76H195.458V26.096C195.458 26.6933 195.671 27.2053 196.098 27.632C196.567 28.016 197.1 28.208 197.698 28.208H209.154V11.76H215.554V35.376ZM274.935 29.36C274.935 31.8347 274.06 33.904 272.311 35.568C270.604 37.1893 268.449 38 265.847 38H261.303C258.7 38 256.545 37.1893 254.839 35.568C253.132 33.904 252.279 31.8347 252.279 29.36V17.072H246.903V11.248H252.279V0.879997H258.679V11.248H265.079V17.072H258.679V29.936C258.679 30.4907 258.892 30.9813 259.319 31.408C259.788 31.8347 260.321 32.048 260.919 32.048H266.167C266.764 32.048 267.276 31.8347 267.703 31.408C268.172 30.9813 268.407 30.4907 268.407 29.936V26.736H274.935V29.36ZM309.436 38H303.036V19.248C303.036 18.6507 302.801 18.16 302.332 17.776C301.905 17.3493 301.393 17.136 300.796 17.136H296.572C295.591 17.136 294.652 17.52 293.756 18.288L289.02 22.256V38H282.62V0.879997H289.02V14.832C290.471 13.552 291.495 12.7413 292.092 12.4C293.287 11.632 294.545 11.248 295.868 11.248H300.604C303.207 11.2053 305.319 11.9733 306.94 13.552C308.604 15.088 309.436 17.1147 309.436 19.632V38ZM346.435 28.016H326.083V30.192C326.083 30.7467 326.296 31.2373 326.723 31.664C327.149 32.0907 327.683 32.304 328.323 32.304H343.043V38H328.771C326.168 38 323.992 37.2107 322.243 35.632C320.536 34.0107 319.683 31.9627 319.683 29.488V20.272C319.683 17.7973 320.536 15.7707 322.243 14.192C323.992 12.5707 326.168 11.76 328.771 11.76H337.347C339.949 11.76 342.104 12.5707 343.811 14.192C345.56 15.7707 346.435 17.7973 346.435 20.272V28.016ZM340.035 22.448V19.76C340.035 19.1627 339.821 18.672 339.395 18.288C338.968 17.8613 338.435 17.648 337.795 17.648H328.323C327.725 17.648 327.192 17.8613 326.723 18.288C326.296 18.672 326.083 19.1627 326.083 19.76V22.448H340.035ZM537.524 35.632C537.524 36.912 537.204 37.872 536.564 38.512L531.508 44.656L529.396 43.184L532.532 38.128V37.616H530.356C529.929 37.616 529.716 37.4027 529.716 36.976V31.216C529.716 30.7893 529.929 30.576 530.356 30.576H536.884C537.31 30.576 537.524 30.7893 537.524 31.216V35.632ZM24.416 102H1.12V64.88H7.776V96.048H24.416V102ZM45.274 71.344H38.49V64.88H45.274V71.344ZM50.65 102H33.37V96.304H38.746V81.008H33.37V75.248H45.146V96.304H50.65V102ZM85.988 87.152C85.988 89.4133 85.1987 91.3973 83.62 93.104L75.556 102H70.052L61.988 93.104C60.4093 91.3973 59.62 89.4133 59.62 87.152V75.76H66.148V87.216C66.148 88.1973 66.4253 89.008 66.98 89.648L72.74 96.176L78.628 89.648C79.1827 89.008 79.46 88.1973 79.46 87.216V75.76H85.988V87.152ZM122.997 92.016H102.645V94.192C102.645 94.7467 102.858 95.2373 103.285 95.664C103.712 96.0907 104.245 96.304 104.885 96.304H119.605V102H105.333C102.73 102 100.554 101.211 98.805 99.632C97.0983 98.0107 96.245 95.9627 96.245 93.488V84.272C96.245 81.7973 97.0983 79.7707 98.805 78.192C100.554 76.5707 102.73 75.76 105.333 75.76H113.909C116.512 75.76 118.666 76.5707 120.373 78.192C122.122 79.7707 122.997 81.7973 122.997 84.272V92.016ZM116.597 86.448V83.76C116.597 83.1627 116.384 82.672 115.957 82.288C115.53 81.8613 114.997 81.648 114.357 81.648H104.885C104.288 81.648 103.754 81.8613 103.285 82.288C102.858 82.672 102.645 83.1627 102.645 83.76V86.448H116.597ZM182.116 99.376C182.116 101.851 181.241 103.899 179.492 105.52C177.785 107.184 175.631 108.016 173.028 108.016H160.996V102H173.476C174.116 102 174.649 101.808 175.076 101.424C175.503 100.997 175.716 100.485 175.716 99.888V98.224H164.708C162.105 98.224 159.929 97.4133 158.18 95.792C156.473 94.1707 155.62 92.1227 155.62 89.648V75.76H162.02V90.096C162.02 90.6933 162.233 91.2053 162.66 91.632C163.129 92.016 163.663 92.208 164.26 92.208H175.716V75.76H182.116V99.376ZM219.378 93.424C219.378 95.856 218.482 97.904 216.69 99.568C214.941 101.189 212.765 102 210.162 102H200.946C198.343 102 196.146 101.189 194.354 99.568C192.605 97.904 191.73 95.856 191.73 93.424V84.336C191.73 81.904 192.605 79.8773 194.354 78.256C196.146 76.592 198.343 75.76 200.946 75.76H210.162C212.765 75.76 214.941 76.592 216.69 78.256C218.482 79.8773 219.378 81.904 219.378 84.336V93.424ZM212.978 94.064V83.696C212.978 83.0987 212.765 82.608 212.338 82.224C211.911 81.7973 211.378 81.584 210.738 81.584H200.37C199.773 81.584 199.239 81.7973 198.77 82.224C198.343 82.608 198.13 83.0987 198.13 83.696V94.064C198.13 94.6613 198.343 95.1733 198.77 95.6C199.239 95.984 199.773 96.176 200.37 96.176H210.738C211.378 96.176 211.911 95.984 212.338 95.6C212.765 95.1733 212.978 94.6613 212.978 94.064ZM255.555 102H249.155V98.288C247.832 99.568 246.851 100.421 246.211 100.848C245.102 101.616 243.843 102 242.435 102H238.083C235.48 102 233.304 101.211 231.555 99.632C229.848 98.0107 228.995 95.9627 228.995 93.488V75.76H235.395V94.192C235.395 94.7467 235.608 95.2373 236.035 95.664C236.462 96.0907 236.995 96.304 237.635 96.304H241.731C242.542 96.304 243.075 96.2613 243.331 96.176C243.63 96.048 244.035 95.728 244.547 95.216L249.155 90.544V75.76H255.555V102ZM291.024 86.768H284.496V83.76C284.496 83.1627 284.261 82.672 283.792 82.288C283.365 81.8613 282.853 81.648 282.256 81.648H279.376C278.266 81.648 277.306 82.0107 276.496 82.736L272.208 86.64V102H265.808V75.76H272.208V79.28C273.701 77.872 274.618 77.04 274.96 76.784C275.941 76.1013 277.157 75.76 278.608 75.76H281.936C284.538 75.7173 286.693 76.5067 288.4 78.128C290.149 79.7493 291.024 81.776 291.024 84.208V86.768Z" fill="white" fill-opacity="0.9"/>
</svg>
