<svg width="138" height="117" viewBox="0 0 138 117" fill="none" xmlns="http://www.w3.org/2000/svg">
<path d="M7.03042 20.929L15.927 11.9691V58.9497L6.96868 49.9276L7.03042 20.929ZM79.381 65.9609L60.847 84.6258H41.4227L22.8877 65.9599V7.0118H51.1349V0.000564575H17.9654L0.0756813 18.0186L0 52.825L38.5389 91.637H63.7309L86.3428 68.8643V51.451H79.381V65.9609Z" fill="#09CE91"/>
<path d="M56.7388 39.0056H98.8884V31.9944H56.7388V39.0056Z" fill="#09CE91"/>
<path d="M74.8701 7.0112H117.021V-3.00407e-05H74.8701V7.0112Z" fill="#09CE91"/>
<path d="M65.8047 23.0029H107.954V15.9917H65.8047V23.0029Z" fill="#09CE91"/>
<path d="M79.4104 113.613C77.6488 116.95 73.8408 117.951 70.2609 116.033C67.9486 114.797 66.661 112.811 66.8204 110.572L70.004 110.558C70.0418 111.925 70.6722 112.871 71.6729 113.408C73.2901 114.272 75.1563 113.819 76.179 111.881C77.2007 109.946 76.5305 108.134 74.9143 107.268C73.9125 106.731 72.7932 106.713 71.6341 107.467L69.8775 104.782C71.6102 103.438 73.9743 103.382 76.2865 104.619C79.8665 106.536 81.174 110.276 79.4104 113.613Z" fill="white"/>
<path d="M58.3081 95.5319C56.5296 96.7565 56.2309 98.6309 57.2506 100.133C58.2713 101.635 60.1265 102.053 61.906 100.827C63.6835 99.6027 63.9693 97.7092 62.9496 96.2079C61.9289 94.7055 60.0867 94.3064 58.3081 95.5319ZM63.9723 103.87C60.8743 106.004 57.0405 105.113 54.8029 101.819C52.5663 98.5256 53.1439 94.6233 56.2418 92.4892C59.3398 90.355 63.1617 91.2285 65.3973 94.521C67.6339 97.8135 67.0693 101.737 63.9723 103.87Z" fill="white"/>
<path d="M47.8132 82.8332L47.2446 79.6651L49.9801 79.1676L50.5328 82.2435L59.7889 80.5586L60.4322 84.142L51.1751 85.8258L51.5177 87.7323L48.7812 88.2298L48.4386 86.3233L47.8919 86.4236C45.1335 86.925 43.0274 85.5541 42.4757 82.4782C42.2945 81.4673 42.3094 80.3731 42.646 79.625L45.3914 80.0963C45.1883 80.5376 45.1186 81.0711 45.2182 81.6227C45.4074 82.6788 46.0805 83.1481 47.2884 82.9295L47.8132 82.8332Z" fill="white"/>
<path d="M48.0714 67.5214L48.5922 64.3443L51.3357 64.8006L50.8308 67.8855L60.1108 69.4279L59.5223 73.0193L50.2413 71.4768L49.9276 73.3884L47.1842 72.932L47.4978 71.0205L46.9502 70.9293C44.1838 70.4689 42.6572 68.4652 43.1621 65.3802C43.3284 64.3673 43.7078 63.3424 44.2744 62.7507L46.7022 64.1246C46.3646 64.4706 46.1216 64.951 46.031 65.5026C45.8568 66.5617 46.3347 67.2326 47.5456 67.4342L48.0714 67.5214Z" fill="white"/>
<path d="M56.9064 56.5865L60.2145 51.3785C58.7506 50.7386 57.2549 51.1879 56.3806 52.5639C55.4953 53.9599 55.6975 55.5024 56.9064 56.5865ZM63.7884 49.6916L58.7078 57.6917C60.2025 58.2383 61.7142 57.6335 62.7369 56.0229C63.4489 54.9016 63.6291 53.8827 63.408 52.7153L66.2003 52.2159C66.6882 53.9148 66.3387 55.7661 65.1278 57.6726C62.8056 61.3292 59.0105 62.2358 55.8887 60.224C52.7469 58.1992 52.018 54.324 54.0654 51.1007C56.0381 47.9947 59.6299 46.9296 63.0067 49.1049C63.2408 49.2554 63.5475 49.5091 63.7884 49.6916Z" fill="white"/>
<path d="M70.1514 42.0093L75.5078 38.9866C74.515 37.7279 72.9854 37.414 71.5704 38.2123C70.1354 39.0227 69.5917 40.4799 70.1514 42.0093ZM79.4482 39.1952L71.2228 43.8396C72.2854 45.032 73.9016 45.2155 75.5586 44.2808C76.7108 43.63 77.3471 42.8166 77.6976 41.6813L80.3952 42.5669C80.0298 44.2979 78.8547 45.7641 76.894 46.8703C73.1348 48.9924 69.3637 47.9915 67.5513 44.7351C65.728 41.4577 66.899 37.6928 70.2131 35.8224C73.4077 34.0192 77.0732 34.7854 79.033 38.3066C79.1694 38.5513 79.3218 38.9194 79.4482 39.1952Z" fill="white"/>
<path d="M102.776 31.3054C102.601 31.9112 102.717 32.4297 103.404 33.6502C105.178 33.2691 105.835 32.8288 106.041 32.1118C106.26 31.3496 105.881 30.6566 104.879 30.3647C103.811 30.0528 103.014 30.476 102.776 31.3054ZM104.392 41.201L101.649 36.5636C99.9874 36.9778 99.2694 37.5454 98.9916 38.5092C98.664 39.6515 99.4994 40.7707 101.213 41.2702C102.281 41.5821 103.373 41.56 104.392 41.201ZM107.259 45.9958L105.892 43.7032C104.146 44.4082 102.185 44.5166 100.183 43.9329C96.756 42.933 94.7564 40.4077 95.4784 37.8965C96.045 35.9248 97.4849 34.8627 100.252 34.2128C99.4586 32.6944 99.2804 31.5491 99.603 30.4279C100.261 28.1433 102.625 27.1324 105.562 27.9889C108.255 28.7741 109.636 30.6826 108.997 32.901C108.533 34.5147 107.258 35.4303 104.808 35.9789L106.89 39.476C107.424 38.8793 107.93 38.1281 108.371 37.2606L110.901 38.9455C110.225 40.2061 109.41 41.2802 108.453 42.0936L109.788 44.329L107.259 45.9958Z" fill="white"/>
<path d="M123.696 51.3853C126.978 49.549 130.713 50.7956 132.683 54.3649C133.954 56.6695 133.964 59.0404 132.62 60.8326L129.942 59.1016C130.648 57.9322 130.63 56.7949 130.079 55.795C129.19 54.1844 127.378 53.5425 125.475 54.6076C123.571 55.6737 123.155 57.5611 124.044 59.1728C124.596 60.1717 125.525 60.7995 126.905 60.8015L126.929 64.0177C124.749 64.1973 122.735 62.9487 121.463 60.644C119.493 57.0747 120.415 53.2216 123.696 51.3853Z" fill="white"/>
<path d="M131.66 78.1184C133.814 78.0643 135.078 76.6562 135.033 74.837C134.988 73.0167 133.657 71.6498 131.502 71.7039C129.349 71.7581 128.085 73.1902 128.131 75.0085C128.176 76.8287 129.507 78.1726 131.66 78.1184ZM131.411 68.0183C135.163 67.925 137.899 70.7732 137.997 74.7618C138.096 78.7513 135.503 81.7098 131.752 81.8041C127.999 81.8983 125.264 79.0722 125.166 75.0837C125.068 71.0942 127.659 68.1116 131.411 68.0183Z" fill="white"/>
<path d="M125.62 97.0362C127.519 98.0602 129.319 97.4434 130.162 95.8599C131.014 94.2562 130.527 92.4049 128.628 91.3799C126.728 90.356 124.929 90.9728 124.074 92.5774C123.234 94.1609 123.721 96.0123 125.62 97.0362ZM133.607 105.394L118.453 97.2208L120.082 94.1559L121.349 94.8389C120.815 93.5191 120.97 92.093 121.756 90.6117C123.419 87.4857 126.905 86.2692 130.356 88.1305C133.808 89.9929 134.733 93.5883 133.071 96.7153C132.349 98.0722 131.308 98.9929 129.983 99.3098L135.312 102.185L133.607 105.394Z" fill="white"/>
<path d="M116.602 108.453L111.426 111.781C112.489 112.98 114.033 113.205 115.401 112.325C116.787 111.435 117.247 109.947 116.602 108.453ZM107.48 111.8L115.428 106.688C114.299 105.56 112.675 105.468 111.074 106.498C109.962 107.214 109.372 108.063 109.086 109.216L106.343 108.488C106.609 106.739 107.7 105.209 109.593 103.989C113.226 101.654 117.047 102.436 119.042 105.583C121.05 108.749 120.094 112.574 116.891 114.634C113.805 116.618 110.102 116.065 107.945 112.662C107.795 112.426 107.622 112.067 107.48 111.8Z" fill="white"/>
</svg>
